<svg width="561" height="401" viewBox="0 0 561 401" fill="none" xmlns="http://www.w3.org/2000/svg">
<path d="M60.0666 0.333344V271.593L14.4467 317.833C5.31428 326.953 0.147134 339.307 0.0666504 352.213C0.124521 364.958 5.21287 377.164 14.2246 386.175C23.2363 395.187 35.4423 400.275 48.1866 400.333H511.947C524.691 400.275 536.897 395.187 545.909 386.175C554.92 377.164 560.009 364.958 560.067 352.213C560.067 339.413 554.747 326.893 545.687 317.833L500.067 271.573V0.333344H60.0666ZM100.067 40.3333H460.067V260.333H100.067V40.3333ZM88.8066 300.333H471.307L517.567 345.953C519.153 347.654 520.045 349.887 520.067 352.213C520.127 353.296 519.959 354.379 519.573 355.391C519.186 356.404 518.59 357.324 517.823 358.09C517.057 358.857 516.137 359.453 515.125 359.839C514.112 360.226 513.029 360.394 511.947 360.333H48.1866C47.1044 360.394 46.0214 360.226 45.0087 359.839C43.996 359.453 43.0763 358.857 42.3098 358.09C41.5433 357.324 40.9473 356.404 40.5607 355.391C40.1742 354.379 40.0058 353.296 40.0666 352.213C40.0666 350.013 41.0066 347.513 42.5666 345.953L88.8066 300.333Z" fill="#CC0000"/>
<path d="M188.187 100.853C171.643 100.853 158.187 114.31 158.187 130.853C158.187 133.616 160.424 135.853 163.187 135.853C165.949 135.853 168.187 133.616 168.187 130.853C168.187 119.822 177.162 110.853 188.187 110.853C190.949 110.853 193.187 108.616 193.187 105.853C193.187 103.091 190.949 100.853 188.187 100.853ZM163.206 219.344C163.206 220.328 163.496 221.288 164.043 222.106L171.702 233.619C172.631 235.013 174.193 235.85 175.865 235.85H200.506C202.181 235.85 203.743 235.013 204.668 233.619L212.327 222.106C212.871 221.288 213.162 220.325 213.165 219.344L213.181 205.85H163.193L163.206 219.344ZM188.187 75.8533C156.224 75.8533 133.187 101.781 133.187 130.853C133.187 144.719 138.327 157.369 146.799 167.035C151.999 172.969 160.156 185.41 163.181 195.835V195.853H178.181V195.816C178.177 194.325 177.956 192.844 177.509 191.419C175.762 185.853 170.377 171.178 158.081 157.147C151.662 149.825 148.231 140.538 148.202 130.853C148.14 107.841 166.849 90.8533 188.187 90.8533C210.243 90.8533 228.187 108.797 228.187 130.853C228.187 140.531 224.674 149.869 218.296 157.147C206.074 171.088 200.665 185.731 198.89 191.353C198.432 192.799 198.198 194.306 198.196 195.822V195.853H213.196V195.838C216.221 185.41 224.377 172.969 229.577 167.038C238.046 157.369 243.187 144.719 243.187 130.853C243.187 100.478 218.562 75.8533 188.187 75.8533Z" fill="#CC0000"/>
<path fill-rule="evenodd" clip-rule="evenodd" d="M270.147 197.453C263.081 197.453 257.347 203.188 257.347 210.253C257.347 217.319 263.081 223.053 270.147 223.053C277.212 223.053 282.947 217.319 282.947 210.253C282.947 203.188 277.212 197.453 270.147 197.453ZM300.013 223.053H428.013V205.987H300.013V223.053ZM270.147 146.253C263.081 146.253 257.347 151.988 257.347 159.053C257.347 166.119 263.081 171.853 270.147 171.853C277.212 171.853 282.947 166.119 282.947 159.053C282.947 151.988 277.212 146.253 270.147 146.253ZM300.013 171.853H428.013V154.787H300.013V171.853ZM270.146 95.0533C263.081 95.0533 257.346 100.788 257.346 107.853C257.346 114.919 263.081 120.653 270.146 120.653C277.212 120.653 282.946 114.919 282.946 107.853C282.946 100.788 277.212 95.0533 270.146 95.0533ZM300.013 120.653H428.013V103.587H300.013V120.653Z" fill="#CC0000"/>
</svg>
